<svg width="35" height="40" viewBox="0 0 35 40" fill="none" xmlns="http://www.w3.org/2000/svg">
<path d="M15.3948 15.5179C16.5811 15.5179 17.7392 15.9949 18.6996 16.9209C23.558 21.4949 28.3317 26.2372 32.9077 31.0076C34.8567 33.028 34.8002 35.9464 32.8229 37.9668C31.8061 39.0051 30.4785 39.5663 29.1226 39.5663C27.908 39.5663 26.7782 39.1173 25.8743 38.2194C21.2418 33.8137 16.8071 29.352 12.0899 24.6377L11.6662 24.2168C10.6776 23.2347 10.1409 21.9158 10.1974 20.5127C10.2257 19.1658 10.8188 17.9031 11.8357 17.0051L11.864 16.977L11.8922 16.949C12.9373 16.023 14.1519 15.5179 15.3948 15.5179Z" fill="#E2E8F2"/>
<path d="M5.11263 5.38776C6.52496 5.38776 7.79606 5.92092 8.75645 6.875C10.7055 8.83928 10.649 12.1505 8.67171 14.0587C7.71132 14.9847 6.46847 15.4898 5.14088 15.4898C3.7568 15.4898 2.45745 14.9566 1.46882 13.9464C0.508439 12.9923 0 11.7015 0 10.3546C0 9.00765 0.564932 7.7449 1.52532 6.79081C2.4857 5.89286 3.7568 5.38776 5.11263 5.38776Z" fill="#5BC4D6"/>
<path d="M28.6983 0C29.9694 1.23469 31.1558 2.3852 32.2292 3.56377C34.0934 5.6403 34.0934 8.10968 32.2856 10.0178C27.6814 14.8163 22.9078 19.5586 18.1059 24.1046C17.1737 24.9745 16.0439 25.4515 14.8575 25.4515C13.6146 25.4515 12.4 24.9464 11.4397 24.0204C9.49065 22.1403 9.37766 19.3061 11.1854 17.4821C15.6202 12.9081 20.1114 8.47448 24.8568 3.78826C26.0996 2.55357 27.399 1.26275 28.6983 0Z" fill="#5BC4D6"/>
</svg>
