<svg width="20" height="20" viewBox="0 0 20 20" fill="none" xmlns="http://www.w3.org/2000/svg">
<mask id="mask0" mask-type="alpha" maskUnits="userSpaceOnUse" x="0" y="0" width="20" height="20">
<rect width="20" height="20" fill="#C4C4C4"/>
</mask>
<g mask="url(#mask0)">
<path d="M15.6472 6.26168H9.15304L7.86126 4.72637C7.8178 4.67413 7.75268 4.64484 7.68478 4.64696H2.44531C1.64536 4.65278 1 5.30291 1 6.10286V15.5459C1.00097 16.3486 1.65145 16.9991 2.45413 17H15.6472C16.4499 16.9991 17.1004 16.3486 17.1014 15.5459V7.71582C17.1004 6.91313 16.4499 6.26265 15.6472 6.26168Z" fill="white"/>
<path d="M17.5552 4.38046H11.0593L9.76747 2.84515C9.72401 2.79291 9.6589 2.76361 9.591 2.76573H4.35329C3.62746 2.76692 3.01369 3.30314 2.91504 4.02222H7.69215C7.94266 4.0216 8.1805 4.13216 8.34157 4.32399L9.44453 5.63518H15.6475C16.7948 5.63712 17.7244 6.56673 17.7264 7.71403V15.1047C18.4538 15.0139 18.9999 14.396 19.0005 13.6629V5.83283C18.9986 5.03424 18.3537 4.38628 17.5552 4.38046Z" fill="white"/>
<path d="M4.90334 12.4353C4.81346 12.4353 4.74023 12.4912 4.74023 12.5607V14.5146C4.74023 14.5838 4.81325 14.6401 4.90334 14.6401H5.90951C5.99977 14.6401 6.07295 14.5838 6.07295 14.5146V12.5607C6.07295 12.4914 5.99977 12.4353 5.90951 12.4353H5.8144V12.8846C5.8144 13.0576 5.63169 13.198 5.40647 13.198C5.18158 13.198 4.99857 13.0575 4.99857 12.8846V12.4353H4.90334ZM5.03943 13.9715C5.03943 13.8558 5.16126 13.7622 5.3117 13.7622H5.50182C5.65218 13.7622 5.77396 13.8558 5.77396 13.9715V14.1594C5.77396 14.2749 5.65214 14.3683 5.50182 14.3683H5.3117C5.16126 14.3683 5.03943 14.2749 5.03943 14.1594V13.9715Z" fill="#4164A9"/>
<path d="M5.4056 13.1145C5.57098 13.1145 5.70488 13.0115 5.70488 12.8846V12.1219C5.70488 11.995 5.57098 11.8918 5.4056 11.8918C5.24056 11.8918 5.10645 11.995 5.10645 12.1219V12.8846C5.10666 13.0117 5.24052 13.1145 5.4056 13.1145Z" fill="#4164A9"/>
<path d="M4.29825 6.75972C4.24106 6.64444 4.18396 6.53543 4.12753 6.43286L3.51074 6.6328C3.56414 6.73001 3.6183 6.83342 3.67233 6.94266L4.29825 6.75972Z" fill="#4164A9"/>
<path d="M3.9401 6.10983C3.86915 5.99335 3.80044 5.88764 3.73614 5.7926L3.14258 6.03038C3.20284 6.11947 3.2671 6.21884 3.3338 6.3281L3.9401 6.10983Z" fill="#4164A9"/>
<path d="M4.44043 9.20956C4.46256 9.31831 4.48281 9.42926 4.50208 9.54243L5.16579 9.47669C5.14618 9.35876 5.12484 9.24354 5.10203 9.13049L4.44043 9.20956Z" fill="#4164A9"/>
<path d="M5.3054 10.8697C5.30149 10.7518 5.29539 10.6352 5.28764 10.5204L4.61914 10.5472C4.62642 10.6577 4.63252 10.7694 4.63656 10.8831L5.3054 10.8697Z" fill="#4164A9"/>
<path d="M4.55078 9.87617C4.56526 9.98585 4.57822 10.0975 4.58966 10.2112L5.2572 10.172C5.24542 10.054 5.23178 9.93803 5.21668 9.82397L4.55078 9.87617Z" fill="#4164A9"/>
<path d="M4.59376 7.42441C4.54768 7.30845 4.50025 7.19721 4.45258 7.09021L3.81934 7.25707C3.86491 7.35903 3.9099 7.46503 3.95412 7.5751L4.59376 7.42441Z" fill="#4164A9"/>
<path d="M2.71387 5.47489C2.71475 5.47569 2.80156 5.56663 2.93547 5.74186L3.51244 5.48106C3.35809 5.27938 3.25609 5.17321 3.25183 5.16895L2.71387 5.47489Z" fill="#4164A9"/>
<path d="M4.28223 8.54909C4.31198 8.6559 4.3403 8.76575 4.36689 8.87793L5.0253 8.78583C4.9974 8.66838 4.96777 8.55368 4.93672 8.44189L4.28223 8.54909Z" fill="#4164A9"/>
<path d="M4.83489 8.10049C4.79815 7.98389 4.75994 7.87077 4.72072 7.76099L4.0752 7.89729C4.11269 8.00203 4.14905 8.11029 4.18402 8.22189L4.83489 8.10049Z" fill="#4164A9"/>
<path d="M8.14746 5.47456L7.87814 5.32173L7.60924 5.16846C7.60508 5.17273 7.50332 5.27905 7.34863 5.48057L7.92565 5.74137C8.05985 5.56649 8.14658 5.47537 8.14746 5.47456Z" fill="#4164A9"/>
<path d="M5.55664 10.8697L6.22557 10.8831C6.22952 10.7694 6.23558 10.6577 6.24303 10.5472L5.57436 10.5204C5.56666 10.6352 5.56055 10.7518 5.55664 10.8697Z" fill="#4164A9"/>
<path d="M5.60352 10.172L6.27097 10.2112C6.2825 10.0975 6.29537 9.98583 6.30998 9.87617L5.64408 9.82385C5.62889 9.93803 5.6153 10.054 5.60352 10.172Z" fill="#4164A9"/>
<path d="M7.71842 6.03038L7.12487 5.7926C7.06082 5.88764 6.99197 5.99335 6.9209 6.10983L7.52733 6.3281C7.59378 6.21868 7.65808 6.11921 7.71842 6.03038Z" fill="#4164A9"/>
<path d="M6.42173 9.20952L5.76004 9.13049C5.73707 9.24354 5.7159 9.35889 5.69629 9.47669L6.36 9.54244C6.37923 9.42922 6.39972 9.31811 6.42173 9.20952Z" fill="#4164A9"/>
<path d="M7.35196 6.63256L6.7353 6.43262C6.67866 6.53535 6.62156 6.64417 6.56445 6.75945L7.19029 6.94222C7.24474 6.83314 7.29856 6.72996 7.35196 6.63256Z" fill="#4164A9"/>
<path d="M5.92443 8.44189C5.8935 8.55368 5.86388 8.66819 5.83594 8.78583L6.49443 8.87793C6.52102 8.76575 6.54934 8.6559 6.57897 8.54909L5.92443 8.44189Z" fill="#4164A9"/>
<path d="M6.56178 12.3358C6.56178 12.0304 6.4312 11.754 6.22075 11.5542C6.21856 11.4654 6.21751 11.378 6.21751 11.2909L6.21772 11.2209L5.54834 11.2174V11.2427C5.5015 11.237 5.4542 11.2334 5.40572 11.2334C5.37425 11.2334 5.34353 11.2357 5.31247 11.2377V11.2173L4.64308 11.2209L4.64329 11.2908C4.64329 11.3636 4.64199 11.4373 4.64068 11.511C4.40162 11.7129 4.25 12.007 4.25 12.3358C4.25 12.6603 4.39695 12.9517 4.63054 13.1534V12.5605C4.63054 12.4454 4.75266 12.3512 4.9026 12.3512H4.99783V12.1215C4.99783 11.9487 5.18088 11.808 5.40572 11.808C5.63094 11.808 5.81366 11.9487 5.81366 12.1215V12.3512H5.90876C6.05891 12.3512 6.18115 12.4453 6.18115 12.5605V13.1534C6.41466 12.952 6.56178 12.6605 6.56178 12.3358Z" fill="#4164A9"/>
<path d="M7.042 7.25695L6.40876 7.09009C6.36079 7.19709 6.31353 7.30836 6.26758 7.42432L6.90709 7.57501C6.95136 7.46494 6.99622 7.35891 7.042 7.25695Z" fill="#4164A9"/>
<path d="M6.78623 7.89729L6.14058 7.76099C6.10131 7.8709 6.06319 7.98402 6.02637 8.10046L6.67703 8.22169C6.71238 8.11045 6.74878 8.00219 6.78623 7.89729Z" fill="#4164A9"/>
</g>
</svg>
